<svg width="20" height="20" viewBox="0 0 20 20" fill="none" xmlns="http://www.w3.org/2000/svg">
<path d="M17.0445 10.9556C17.1867 10.8131 17.2706 10.6292 17.2706 10.4113C17.2706 9.97629 16.9438 9.64951 16.5088 9.64951C16.2995 9.64951 16.107 9.73344 15.9645 9.86737L10.0049 15.9609L4.04487 9.86737C3.90273 9.73344 3.70202 9.64951 3.50094 9.64951C3.06559 9.64951 2.73059 9.9763 2.73059 10.4113C2.73059 10.6292 2.81452 10.8131 2.95666 10.9556L9.4438 17.5849C9.57773 17.7442 9.78702 17.8359 10.0045 17.8359C10.2142 17.8359 10.4067 17.7442 10.5656 17.5849L17.0445 10.9556ZM17.0445 3.48058C17.1867 3.32987 17.2706 3.14594 17.2706 2.93665C17.2706 2.5013 16.9438 2.16665 16.5088 2.16665C16.2995 2.16665 16.107 2.25022 15.9645 2.38415L10.0049 8.47772L4.04487 2.38415C3.90273 2.25022 3.70201 2.16629 3.50094 2.16629C3.39929 2.1645 3.29831 2.18321 3.20404 2.22129C3.10976 2.25937 3.02412 2.31605 2.95223 2.38794C2.88034 2.45983 2.82366 2.54547 2.78558 2.63974C2.7475 2.73402 2.7288 2.835 2.73059 2.93665C2.73071 3.0365 2.75077 3.13532 2.78959 3.22731C2.82841 3.3193 2.88521 3.40262 2.95666 3.47237L9.4438 10.1102C9.57773 10.2692 9.78702 10.3531 10.0045 10.3531C10.2142 10.3531 10.4067 10.2692 10.5656 10.1102L17.0445 3.48058Z" fill="#EC4007"/>
</svg>
