<svg width="106" height="38" viewBox="0 0 106 38" fill="none" xmlns="http://www.w3.org/2000/svg">
<g clip-path="url(#clip0_577_4)">
<path fill-rule="evenodd" clip-rule="evenodd" d="M35.9077 15.6008C36.1136 15.5544 36.2972 15.7172 36.2237 15.886L32.6514 24.0013C32.5411 24.248 32.2544 24.2591 32.1296 24.0225C32.1296 24.0225 31.0489 21.193 30.1008 19.4856C29.697 18.7781 29.2081 18.1228 28.6454 17.5344C28.5792 17.4135 28.6822 17.2286 28.8366 17.194L35.9077 15.6008Z" fill="#4807EC"/>
<path fill-rule="evenodd" clip-rule="evenodd" d="M29.8514 0C29.8514 0 29.7118 1.34186 30.366 2.07137C31.0862 2.87162 32.6226 2.99467 32.6226 2.99467C32.6226 2.99467 31.0862 2.79867 30.3217 3.49427C29.4472 4.28567 29.3074 6.08146 29.3074 6.08146C29.3074 6.08146 29.5427 4.58412 28.8811 3.80082C28.1829 2.96152 26.6172 2.75666 26.6172 2.75666C26.6172 2.75666 28.1241 2.79129 29.0062 2.02125C29.7411 1.38606 29.8514 0 29.8514 0Z" fill="#ECC607"/>
<path fill-rule="evenodd" clip-rule="evenodd" d="M23.7755 7.41504C23.7755 7.41504 23.7387 7.75768 23.9151 7.9441C24.099 8.14896 24.5032 8.18139 24.5032 8.18139C24.5032 8.18139 24.0987 8.13053 23.9004 8.30738C23.6725 8.50928 23.6357 8.96762 23.6357 8.96762C23.6357 8.96762 23.702 8.58519 23.5254 8.38477C23.3418 8.17033 22.9375 8.11727 22.9375 8.11727C22.9375 8.11727 23.327 8.12687 23.5622 7.93086C23.746 7.76874 23.7755 7.41504 23.7755 7.41504Z" fill="#ECC607"/>
<path fill-rule="evenodd" clip-rule="evenodd" d="M29.4357 12.3711C29.4357 12.3711 29.3989 12.7137 29.5753 12.9002C29.7591 13.105 30.1634 13.1374 30.1634 13.1374C30.1634 13.1374 29.7591 13.0866 29.5607 13.2635C29.3328 13.4654 29.2961 13.9237 29.2961 13.9237C29.2961 13.9237 29.3621 13.5412 29.1858 13.3408C29.0019 13.1264 28.5977 13.0726 28.5977 13.0726C28.5977 13.0726 28.9874 13.0829 29.2225 12.8869C29.4062 12.7248 29.4357 12.3711 29.4357 12.3711Z" fill="#ECC607"/>
<path fill-rule="evenodd" clip-rule="evenodd" d="M33.3369 8.31836C33.3369 8.31836 33.2633 8.9867 33.594 9.35073C33.947 9.74939 34.7115 9.80983 34.7115 9.80983C34.7115 9.80983 33.947 9.71255 33.5647 10.0596C33.1385 10.4546 33.0649 11.3491 33.0649 11.3491C33.0649 11.3491 33.1825 10.6034 32.8518 10.2129C32.5063 9.79508 31.7344 9.69339 31.7344 9.69339C31.7344 9.69339 32.4768 9.71034 32.9179 9.32568C33.2781 9.00882 33.3369 8.31836 33.3369 8.31836Z" fill="#ECC607"/>
<path fill-rule="evenodd" clip-rule="evenodd" d="M28.4361 7.03516C28.4361 7.03516 28.3919 7.47507 28.6125 7.71529C28.8549 7.97908 29.3695 8.02036 29.3695 8.02036C29.3695 8.02036 28.8549 7.95478 28.5977 8.18248C28.3111 8.44186 28.2595 9.03136 28.2595 9.03136C28.2595 9.03136 28.3403 8.53984 28.1199 8.28194C27.8846 8.00561 27.3555 7.93708 27.3555 7.93708C27.3555 7.93708 27.8625 7.94961 28.1567 7.69761C28.4066 7.48979 28.4361 7.03516 28.4361 7.03516Z" fill="#ECC607"/>
<path fill-rule="evenodd" clip-rule="evenodd" d="M16.3691 4.1787C16.3691 4.1787 21.8525 9.33389 26.1525 15.0263C29.5558 19.533 31.9963 24.8562 31.9963 24.8562C32.0992 24.9934 32.0624 25.2107 31.9153 25.3425L18.0009 37.7958C17.9416 37.8454 17.8674 37.8736 17.7902 37.8763C17.7131 37.8791 17.6372 37.8559 17.5745 37.8106C17.5745 37.8106 13.7302 32.7873 8.82009 28.9659C5.27714 26.2076 0.205273 24.2969 0.205273 24.2969C0.00680901 24.1392 -0.0593455 23.8864 0.0582625 23.7333L15.7075 4.11385C15.884 3.89721 16.178 3.92668 16.3691 4.1787Z" fill="#4807EC"/>
<path d="M85.3205 22.9468C87.2185 22.9468 88.3954 23.784 89.0407 24.4689C89.4014 24.8684 89.5151 25.4011 89.3444 25.896C89.1735 26.3907 88.7561 26.7521 88.2245 26.8663L88.1866 26.8854C86.953 26.8854 86.5163 25.934 85.3205 25.934C85.1117 25.934 84.0869 25.972 84.0869 26.5618C84.0869 28.5408 90.6162 26.0483 90.6162 30.5197C90.6162 31.2618 90.0088 33.8496 85.7003 33.8496C81.9233 33.8496 81.2968 31.4333 81.2399 31.2429C81.0689 30.5006 81.5433 29.5115 82.5302 29.5113C83.9918 29.5113 83.2518 30.8622 85.7003 30.8622C86.3077 30.8622 87.4462 30.9382 87.4464 30.3675C87.4464 28.6741 80.898 30.3484 80.898 26.5618C80.898 24.4309 82.7202 22.9468 85.3205 22.9468ZM66.1395 23.099C67.2025 23.099 68.0568 23.9553 68.0568 25.0018V31.6993C68.0568 32.746 67.2025 33.6023 66.1395 33.6023C65.0956 33.6023 64.2415 32.746 64.2415 31.6993V25.0018C64.2415 23.9553 65.0956 23.099 66.1395 23.099ZM77.6838 19.084C78.7467 19.084 79.6008 19.9404 79.6008 21.0059V31.6993C79.6008 32.746 78.7467 33.6023 77.6838 33.6023C77.247 33.6023 76.8106 33.4501 76.4878 33.1647C75.8236 33.4501 75.1211 33.6023 74.4 33.6023C71.553 33.6023 69.2183 31.2618 69.2183 28.4077C69.2183 24.8113 72.2553 23.1942 74.4 23.1942C74.8744 23.1942 75.349 23.2702 75.7855 23.3842V21.0059C75.7855 19.9404 76.6399 19.084 77.6838 19.084ZM54.7265 19.046C55.8273 19.0461 56.7382 19.9403 56.7382 21.0439V22.8517L59.6043 19.6929C59.6297 19.6651 59.6554 19.6382 59.6817 19.6122L59.7078 19.8051C59.7868 20.3894 60.3283 20.8028 60.9112 20.7237C61.5048 20.6432 61.917 20.1005 61.838 19.5162L61.7917 19.1734C62.0228 19.259 62.242 19.3879 62.4325 19.5598C63.2487 20.3018 63.3057 21.5766 62.5655 22.3948L59.282 25.9911L62.6603 30.3484C62.9831 30.7671 63.135 31.3 63.0589 31.8327C62.945 32.8412 62.0909 33.5832 61.0849 33.5832C60.4586 33.5832 59.8891 33.2978 59.5094 32.8032L56.7382 29.2448V31.5851C56.7382 32.6887 55.8273 33.5832 54.7265 33.5832C53.6256 33.5832 52.7336 32.6889 52.7336 31.5851V21.0439C52.7336 19.9403 53.6256 19.046 54.7265 19.046ZM74.4 27.0185C73.6219 27.0185 73.0336 27.6465 73.0334 28.4077C73.0334 29.1686 73.6408 29.7777 74.4 29.7777C75.1593 29.7777 75.7855 29.1688 75.7855 28.4077C75.7855 27.6465 75.1593 27.0185 74.4 27.0185ZM67.6694 19.5076C67.9697 19.8484 68.1517 20.2946 68.1517 20.7775C68.1517 21.843 67.2973 22.6992 66.2344 22.6992C65.1717 22.6992 64.3175 21.843 64.3175 20.7775C64.3175 20.3691 64.4478 19.9869 64.6698 19.6724C65.1898 19.9486 65.7959 20.0717 66.4194 19.9871C66.8829 19.9242 67.3064 19.7548 67.6694 19.5076ZM61.2896 13.2978C61.8042 13.228 62.2824 13.593 62.3535 14.1183C62.4229 14.6341 62.0588 15.1133 61.5443 15.1831C61.3479 15.2098 61.2395 15.2532 61.2138 15.2758C61.2059 15.2864 61.2084 15.3051 61.2027 15.3344L61.6051 15.28C61.998 15.2267 62.3594 15.5023 62.4125 15.8962C62.4658 16.2901 62.1907 16.6524 61.7976 16.7057L61.3675 16.7639L61.6955 19.2876C61.7651 19.8034 61.4013 20.2826 60.8774 20.3537C60.3629 20.4236 59.8846 20.0585 59.8149 19.5427L59.4867 17.0192L59.2715 17.0484C58.8786 17.1016 58.5175 16.826 58.4642 16.4322C58.411 16.0382 58.6859 15.676 59.0788 15.6226L59.3128 15.5909C59.2398 14.2732 59.9799 13.4756 61.2896 13.2978ZM65.6912 14.478C67.5227 14.2295 68.4225 15.6857 68.5546 16.6637C68.7416 18.0476 67.7626 19.3361 66.3731 19.5247C64.9926 19.712 63.7072 18.7307 63.5201 17.3468C63.332 15.9537 64.3107 14.6654 65.6912 14.478ZM72.063 13.4303C72.6641 13.3487 73.4281 13.5298 73.8877 13.934C74.0546 14.0842 74.1522 14.2957 74.1662 14.5271C74.1801 14.7585 74.1061 14.976 73.949 15.1529C73.7992 15.3201 73.5881 15.4179 73.3573 15.432C73.1348 15.4448 72.7217 15.3717 72.5538 15.2131C72.4757 15.1459 72.3949 15.1222 72.2934 15.136C71.9548 15.182 71.7216 15.4987 71.7675 15.8382L71.9659 17.3063C72.029 17.7731 71.6996 18.2066 71.2257 18.271C70.7599 18.3341 70.3275 18.004 70.2644 17.5372L69.8677 14.6009C69.8034 14.1257 70.133 13.6921 70.5985 13.6289C70.8017 13.6014 70.9983 13.6526 71.1667 13.7507C71.4372 13.5844 71.7498 13.4728 72.063 13.4303ZM66.7047 16.9148C66.6411 16.4443 66.4112 16.2687 65.9418 16.3324C65.5736 16.3823 65.3203 16.7269 65.3703 17.0959C65.4202 17.4649 65.7543 17.72 66.1225 17.6701C66.4907 17.6201 66.7544 17.2838 66.7047 16.9148ZM76.7309 6.87393C77.4037 6.89896 77.9396 7.47365 77.9396 8.16077V13.2454C77.952 13.5078 77.9271 14.8821 76.9551 15.8815C76.3446 16.5062 75.5095 16.831 74.5373 16.831C73.6278 16.831 72.8425 16.5187 72.2569 15.9066C72.1572 15.8067 72.0782 15.6901 72.0206 15.564C72.1189 15.4927 72.2353 15.4439 72.364 15.4264C72.4911 15.4092 72.5921 15.4388 72.6899 15.5229C72.9001 15.7215 73.1825 15.813 73.4608 15.7969C73.7497 15.7793 74.0139 15.6568 74.2014 15.4475C74.3982 15.2261 74.491 14.9537 74.4733 14.664C74.4663 14.5455 74.4411 14.4313 74.4002 14.3247C74.4436 14.3292 74.4892 14.3322 74.5373 14.3322C74.824 14.3322 75.0233 14.2698 75.1479 14.1325C75.285 14.0076 75.3599 13.7826 75.4096 13.5952C75.1232 13.6701 74.8365 13.7076 74.5373 13.7076C74.21 13.7076 73.8948 13.656 73.5981 13.5572C73.4674 13.4883 73.3321 13.4316 73.1934 13.387C72.8513 13.2112 72.5431 12.9661 72.2816 12.6583C71.6835 11.9587 71.3844 11.0217 71.3719 9.84735V8.13565C71.3719 7.42355 71.9452 6.87393 72.6554 6.87393C73.3284 6.89892 73.8768 7.47363 73.8768 8.16077V9.79734C73.8768 10.472 74.0514 11.1966 74.5373 11.1966C75.0358 11.1966 75.4346 10.7968 75.4471 10.2971V8.13565C75.4471 7.41105 76.0204 6.87393 76.7309 6.87393ZM53.898 4.67515C54.5957 4.67517 55.1566 5.23725 55.1566 5.93686V6.87393H55.7299C56.2534 6.87398 56.6769 7.29876 56.6769 7.82343C56.6769 8.34808 56.2534 8.77268 55.7299 8.77273H55.1566V10.5093C55.1566 10.9341 55.1938 11.0842 55.2188 11.1342C55.2562 11.1592 55.3933 11.1966 55.6675 11.1966C56.3528 11.1966 56.9139 11.7587 56.9139 12.4583C56.9139 13.1455 56.3528 13.7076 55.6675 13.7076C53.5739 13.7076 52.6519 12.4832 52.6519 10.5093V8.77273H52.3652C51.8418 8.77273 51.418 8.34813 51.418 7.82343C51.418 7.29871 51.8418 6.87393 52.3652 6.87393H52.6519V5.93686C52.6519 5.23725 53.2125 4.67515 53.898 4.67515ZM68.3149 6.87393C69.1997 6.87393 69.9973 7.24863 70.5831 7.92321C70.7949 8.17308 70.8948 8.49808 70.8698 8.83539C70.8448 9.17266 70.6952 9.4725 70.4335 9.69736C70.1843 9.90972 69.8604 10.0096 69.524 9.98468C69.1999 9.95969 68.8882 9.80972 68.6762 9.54736C68.5766 9.43497 68.4645 9.38494 68.3149 9.38491C67.8164 9.38491 67.4176 9.79736 67.4176 10.2971V12.4583C67.4176 13.1455 66.8568 13.7076 66.1588 13.7076C65.4735 13.7076 64.9127 13.1454 64.9127 12.4583V8.13565C64.9127 7.43608 65.4735 6.87398 66.1588 6.87393C66.458 6.87393 66.7324 6.98634 66.9566 7.16125C67.3804 6.97387 67.8539 6.87393 68.3149 6.87393ZM81.0374 4.67515C81.7354 4.67515 82.2962 5.23725 82.2962 5.93686V6.87393H82.8693C83.3928 6.87393 83.8165 7.29871 83.8165 7.82343C83.8165 8.34813 83.3928 8.77273 82.8693 8.77273H82.2962V10.5093C82.2962 10.9341 82.3337 11.0842 82.3584 11.1342C82.3959 11.1592 82.5332 11.1966 82.8072 11.1966C83.4926 11.1966 84.0533 11.7587 84.0533 12.4583C84.0533 13.1455 83.4926 13.7076 82.8072 13.7076C80.7135 13.7076 79.7913 12.4833 79.7913 10.5093V8.77273H79.5046C78.9812 8.77273 78.5576 8.34811 78.5574 7.82343C78.5574 7.29874 78.9812 6.87393 79.5046 6.87393H79.7913V5.93686C79.7913 5.23727 80.3521 4.67521 81.0374 4.67515ZM86.0573 6.8115C86.7553 6.81154 87.3159 7.37367 87.3159 8.06076V12.4583C87.3159 13.1454 86.7553 13.7076 86.0573 13.7076C85.372 13.7076 84.8109 13.1455 84.8109 12.4583V8.06076C84.8109 7.37365 85.372 6.8115 86.0573 6.8115ZM95.8177 6.87393C98.1358 6.87393 98.9709 8.96032 98.9834 10.7469V12.4583C98.9834 13.1454 98.4225 13.7076 97.737 13.7076C97.0393 13.7076 96.4782 13.1455 96.4782 12.4583V10.7842C96.4782 10.1096 96.3039 9.38491 95.8177 9.38491C95.3192 9.38496 94.9082 9.79741 94.9082 10.2971V12.4583C94.9082 13.1455 94.3473 13.7076 93.6618 13.7076C92.9766 13.7076 92.4157 13.1455 92.4157 12.4583V10.7842C92.4157 10.1096 92.2412 9.38501 91.7427 9.38491C91.2443 9.38491 90.8455 9.79736 90.8455 10.2971V12.4583C90.8455 13.1455 90.2846 13.7076 89.5866 13.7076C88.9011 13.7076 88.3405 13.1455 88.3405 12.4583V8.13565C88.3405 7.43606 88.9014 6.87396 89.5866 6.87393C89.8858 6.87393 90.16 6.98636 90.3842 7.16125C90.808 6.97385 91.2817 6.87393 91.7427 6.87393C92.4779 6.87396 93.1636 7.13627 93.6993 7.611C94.2976 7.13629 95.0451 6.87396 95.8177 6.87393ZM103.019 6.87393C103.841 6.87396 105.823 7.34868 105.823 9.74735C105.823 10.297 105.349 10.9342 104.065 10.9342H102.47C102.47 10.9351 102.533 11.1966 103.019 11.1966C103.953 11.1966 105.274 10.9093 105.274 12.0461C105.274 12.4834 105.062 13.7076 103.019 13.7076C100.638 13.7076 99.6164 11.9711 99.6164 10.4344C99.6164 7.71091 102.084 6.87393 103.019 6.87393ZM47.139 4.10028C48.7092 4.10028 49.6689 4.83738 50.2048 5.44955C50.5039 5.79935 50.6036 6.26163 50.454 6.68639C50.3169 7.12364 49.9805 7.4486 49.5318 7.54856L49.5068 7.56101C48.4849 7.56098 48.1236 6.73638 47.139 6.73638C46.9771 6.73638 46.1296 6.76146 46.1296 7.27368C46.1298 9.02264 51.5133 6.82401 51.5133 10.7469C51.5133 11.3966 51.0022 13.6827 47.4506 13.6827C44.3475 13.6827 43.8241 11.5589 43.7867 11.3839C43.6371 10.7343 44.0359 9.8598 44.846 9.8598C46.0549 9.8598 45.4443 11.0466 47.4506 11.0466C47.9493 11.0466 48.8838 11.1214 48.8838 10.6218C48.8835 9.12271 43.5 10.5968 43.5 7.27368C43.5 5.41219 44.9956 4.10028 47.139 4.10028ZM60.739 6.88638C63.2189 6.88643 64.1537 8.98528 64.1537 10.3095C64.1537 11.585 63.4434 12.7037 62.3966 13.2885C62.173 12.9687 61.786 12.783 61.3786 12.8383C60.6843 12.9325 60.1311 13.1805 59.7477 13.5707C58.357 13.1421 57.3367 11.8383 57.3367 10.3095C57.3367 8.42306 58.8698 6.88638 60.739 6.88638ZM60.739 9.39736C60.2405 9.39736 59.8417 9.80981 59.8417 10.3095C59.8417 10.8093 60.2405 11.2091 60.739 11.2091C61.2374 11.209 61.6487 10.8092 61.6487 10.3095C61.6487 9.67242 61.3745 9.39738 60.739 9.39736ZM103.069 8.94782C102.271 8.94782 102.283 9.68491 102.283 9.68491H103.854C103.854 9.68491 103.829 8.94787 103.069 8.94782ZM86.1197 4.02539C86.8175 4.02544 87.3781 4.60006 87.3783 5.28713C87.3783 5.98671 86.8175 6.54902 86.1197 6.54907C85.4217 6.54907 84.8609 5.98674 84.8609 5.28713C84.8609 4.60003 85.4217 4.02539 86.1197 4.02539Z" fill="#EC4007"/>
</g>
<defs>
<clipPath id="clip0_577_4">
<rect width="106" height="38" fill="white"/>
</clipPath>
</defs>
</svg>
